<svg width="657.9px" height="121.4px" xmlns="http://www.w3.org/2000/svg" viewBox="-78.94687499999998 14.300000000000004 657.89375 121.39999999999999" style="background: rgba(253, 253, 253, 0)" preserveAspectRatio="xMidYMid"><defs><linearGradient id="editing-shiny-gradient" x1="0.13432314919041471" x2="0.8656768508095853" y1="0.15900081996875076" y2="0.8409991800312493" gradientUnits="objectBoundingBox"><stop offset="0" stop-color="#0989e1"></stop><stop offset="0.5" stop-color="#476d8b"></stop><stop offset="1" stop-color="#d200f0"></stop></linearGradient><linearGradient id="editing-shiny-gradient2" x1="0" x2="0" y1="0" y2="1"><stop offset="0.2" stop-color="#ffffff" stop-opacity="0.8"></stop><stop offset="0.8" stop-color="#ffffff" stop-opacity="0"></stop></linearGradient><filter id="editing-shiny2" x="-100%" y="-100%" width="300%" height="300%"><feMorphology operator="erode" radius="2"></feMorphology></filter><filter id="editing-shiny" x="-100%" y="-100%" width="300%" height="300%"><feFlood flood-color="#fff" result="flood"></feFlood><feConvolveMatrix in="SourceGraphic" result="conv" order="8,8" divisor="1" kernelMatrix="0 0 0 0 0 0 0 0 0 0 0 1 1 0 0 0 0 0 0 1 1 0 0 0 0 0 1 0 0 1 0 0 0 0 1 0 0 1 0 0 0 1 0 0 0 0 1 0 0 1 1 0 0 1 1 0 0 0 0 1 1 0 0 0 "></feConvolveMatrix><feOffset dx="0" dy="4" in="conv" result="offset"></feOffset><feComposite operator="in" in="flood" in2="offset" result="comp"></feComposite><feGaussianBlur in="offset" stdDeviation="3" result="shadow"></feGaussianBlur><feColorMatrix in="shadow" type="matrix" values="0.7 0 0 0 0  0 0.7 0 0 0  0 0 0.7 0 0  0 0 0 0.3 0" result="dark-shadow"></feColorMatrix><feOffset dx="0" dy="4" in="dark-shadow" result="offset-shadow"></feOffset><feOffset dx="0" dy="2" in="conv" result="offset-2"></feOffset><feComposite operator="out" in="offset" in2="offset-2" result="edge-diff"></feComposite><feGaussianBlur in="edge-diff" stdDeviation="1" result="edge-blur"></feGaussianBlur><feColorMatrix in="edge-blur" result="edge-shadow" type="matrix" values="0 0 0 0 0  0 0 0 0 0  0 0 0 0 0  0 0 0 0.5 0"></feColorMatrix><feComposite operator="in" in="edge-shadow" in2="offset" result="edge-shadow-in"></feComposite><feOffset dx="0" dy="1" in="edge-shadow-in" result="edge-shadow-final"></feOffset><feMerge result="out"><feMergeNode in="offset-shadow"></feMergeNode><feMergeNode in="comp"></feMergeNode><feMergeNode in="edge-shadow-final"></feMergeNode><feMergeNode in="SourceGraphic"></feMergeNode></feMerge></filter></defs><g filter="url(#editing-shiny)"><g transform="matrix(1.3,0,0,1.7,-58.5,192.4)"><path d="M -6.5 47 L -20.4 47 L -12.3 4.8 L 1.8 4.8 L -6.5 47 Z M 49.3 48.3 L 49.3 48.3 L 49.3 48.3 Q 41.5 48.3 41.5 42.3 L 41.5 42.3 L 41.5 42.3 Q 41.5 39.6 42.7 34.6 L 42.7 34.6 L 42.7 34.6 Q 43.8 29.5 44.2 27.4 L 44.2 27.4 L 44.2 27.4 Q 45.1 22.7 45.1 21.3 L 45.1 21.3 L 45.1 21.3 Q 45.1 18 42.6 18 L 42.6 18 L 42.6 18 Q 41 18 39.5 20.2 L 39.5 20.2 L 39.5 20.2 Q 38 22.4 37.2 26.8 L 37.2 26.8 L 33.3 47 L 20.8 48.3 L 24.3 30.9 L 24.3 30.9 Q 24.8 28 25.3 24.7 L 25.3 24.7 L 25.3 24.7 Q 25.9 21.5 25.9 20.9 L 25.9 20.9 L 25.9 20.9 Q 25.9 18 23.7 18 L 23.7 18 L 23.7 18 Q 22.2 18 20.6 20.2 L 20.6 20.2 L 20.6 20.2 Q 19 22.4 18.1 26.8 L 18.1 26.8 L 14.2 47 L 1.6 48.3 L 8.3 14.4 L 18.7 13.1 L 17.7 19.5 L 17.7 19.5 Q 19.3 16.1 22.4 14.6 L 22.4 14.6 L 22.4 14.6 Q 25.5 13.1 30.3 13.1 L 30.3 13.1 L 30.3 13.1 Q 33 13.1 34.8 14.4 L 34.8 14.4 L 34.8 14.4 Q 36.6 15.8 37.2 17.9 L 37.2 17.9 L 37.2 17.9 Q 38.3 15.7 41.1 14.4 L 41.1 14.4 L 41.1 14.4 Q 43.8 13.1 47.3 13.1 L 47.3 13.1 L 47.3 13.1 Q 50.7 13.1 52.4 13.8 L 52.4 13.8 L 52.4 13.8 Q 54.1 14.5 55.1 15.8 L 55.1 15.8 L 55.1 15.8 Q 56.8 18 56.8 22.1 L 56.8 22.1 L 56.8 22.1 Q 56.8 26.1 55.1 34.5 L 55.1 34.5 L 55.1 34.5 Q 54.2 38.6 54.2 40.1 L 54.2 40.1 L 54.2 40.1 Q 54.2 41.6 55.1 42.5 L 55.1 42.5 L 55.1 42.5 Q 55.9 43.4 57.2 43.5 L 57.2 43.5 L 57.2 43.5 Q 56.6 45.7 54.4 47 L 54.4 47 L 54.4 47 Q 52.2 48.3 49.3 48.3 Z M 64.9 45.1 L 64.9 45.1 L 64.9 45.1 Q 63.4 43.4 62.7 40.8 L 62.7 40.8 L 62.7 40.8 Q 62.1 38.2 62.1 33.9 L 62.1 33.9 L 62.1 33.9 Q 62.1 29.6 63.5 25.7 L 63.5 25.7 L 63.5 25.7 Q 65 21.8 67.7 19 L 67.7 19 L 67.7 19 Q 73.2 13.1 82.3 13.1 L 82.3 13.1 L 82.3 13.1 Q 85.6 13.1 87.9 14.2 L 87.9 14.2 L 98.9 13.1 L 94.1 38 L 94.1 38 Q 94 38.8 94 40.2 L 94 40.2 L 94 40.2 Q 94 41.6 94.8 42.5 L 94.8 42.5 L 94.8 42.5 Q 95.7 43.4 97 43.5 L 97 43.5 L 97 43.5 Q 96.3 45.7 94 47 L 94 47 L 94 47 Q 91.7 48.3 89 48.3 L 89 48.3 L 89 48.3 Q 86.4 48.3 84.6 47.3 L 84.6 47.3 L 84.6 47.3 Q 82.9 46.3 82.4 44.6 L 82.4 44.6 L 82.4 44.6 Q 81.3 46.2 79.2 47.3 L 79.2 47.3 L 79.2 47.3 Q 77 48.3 74.1 48.3 L 74.1 48.3 L 74.1 48.3 Q 71.2 48.3 68.8 47.5 L 68.8 47.5 L 68.8 47.5 Q 66.4 46.7 64.9 45.1 Z M 78.4 19.1 L 78.4 19.1 L 78.4 19.1 Q 77.7 20.2 77.1 22.2 L 77.1 22.2 L 77.1 22.2 Q 76.4 24.1 75.4 29.4 L 75.4 29.4 L 75.4 29.4 Q 74.3 34.6 74.3 38.3 L 74.3 38.3 L 74.3 38.3 Q 74.3 42 74.9 43.1 L 74.9 43.1 L 74.9 43.1 Q 75.5 44.2 76.5 44.2 L 76.5 44.2 L 76.5 44.2 Q 78.5 44.2 80 42.2 L 80 42.2 L 80 42.2 Q 81.5 40.3 82.1 36.8 L 82.1 36.8 L 85.5 18.1 L 85.5 18.1 Q 84.2 16.9 82.6 16.9 L 82.6 16.9 L 82.6 16.9 Q 81 16.9 80.1 17.4 L 80.1 17.4 L 80.1 17.4 Q 79.2 17.9 78.4 19.1 Z M 106.6 20.2 L 106.6 20.2 L 106.6 20.2 Q 108.8 17.2 112.1 15.1 L 112.1 15.1 L 112.1 15.1 Q 115.4 13.1 119.4 13.1 L 119.4 13.1 L 119.4 13.1 Q 123.5 13.1 125.4 14.4 L 125.4 14.4 L 137.9 13.1 L 133.6 37.7 L 133.6 37.7 Q 131.3 50.2 126.6 55.1 L 126.6 55.1 L 126.6 55.1 Q 122 59.8 113.2 59.8 L 113.2 59.8 L 113.2 59.8 Q 106.5 59.8 102.7 57.7 L 102.7 57.7 L 102.7 57.7 Q 98.8 55.6 98.8 52.1 L 98.8 52.1 L 98.8 52.1 Q 98.8 49.4 100.8 47.9 L 100.8 47.9 L 100.8 47.9 Q 102.8 46.4 105.9 46.4 L 105.9 46.4 L 105.9 46.4 Q 108.5 46.4 110.6 47.6 L 110.6 47.6 L 110.6 47.6 Q 111.8 48.3 112.4 49.2 L 112.4 49.2 L 112.4 49.2 Q 110.9 50.5 110.9 52.6 L 110.9 52.6 L 110.9 52.6 Q 110.9 55.3 113.5 55.3 L 113.5 55.3 L 113.5 55.3 Q 117.8 55.3 120.2 45.2 L 120.2 45.2 L 120.2 45.2 Q 120.9 42.5 121.5 39.7 L 121.5 39.7 L 121.5 39.7 Q 118.6 43.2 112.1 43.2 L 112.1 43.2 L 112.1 43.2 Q 107.5 43.2 104.9 41 L 104.9 41 L 104.9 41 Q 102.3 38.9 102.3 33.7 L 102.3 33.7 L 102.3 33.7 Q 102.3 30.6 103.4 26.9 L 103.4 26.9 L 103.4 26.9 Q 104.5 23.3 106.6 20.2 Z M 114.9 33.9 L 114.9 33.9 L 114.9 33.9 Q 114.9 38.3 117.2 38.3 L 117.2 38.3 L 117.2 38.3 Q 118.7 38.3 120.2 36.6 L 120.2 36.6 L 120.2 36.6 Q 121.3 35.3 121.8 33.3 L 121.8 33.3 L 125.1 16.9 L 125.1 16.9 Q 124.7 16.8 124.4 16.7 L 124.4 16.7 L 124.4 16.7 Q 123.8 16.4 122.9 16.4 L 122.9 16.4 L 122.9 16.4 Q 119 16.4 116.7 22.8 L 116.7 22.8 L 116.7 22.8 Q 114.9 27.8 114.9 33.9 Z M 166.3 36.2 L 166.3 36.2 L 166.3 36.2 Q 167.9 37.3 167.9 39.7 L 167.9 39.7 L 167.9 39.7 Q 167.9 42.1 166.7 43.6 L 166.7 43.6 L 166.7 43.6 Q 165.5 45.1 163.5 46.2 L 163.5 46.2 L 163.5 46.2 Q 159.4 48.3 155 48.3 L 155 48.3 L 155 48.3 Q 150.6 48.3 148 47.3 L 148 47.3 L 148 47.3 Q 145.4 46.4 143.7 44.6 L 143.7 44.6 L 143.7 44.6 Q 140.3 41.2 140.3 35 L 140.3 35 L 140.3 35 Q 140.3 25.3 145.5 19.4 L 145.5 19.4 L 145.5 19.4 Q 151.2 13.1 161 13.1 L 161 13.1 L 161 13.1 Q 167 13.1 170 15.6 L 170 15.6 L 170 15.6 Q 172.3 17.6 172.3 20.7 L 172.3 20.7 L 172.3 20.7 Q 172.3 32 152.8 32 L 152.8 32 L 152.8 32 Q 152.6 33.6 152.6 35 L 152.6 35 L 152.6 35 Q 152.6 38 153.9 39.1 L 153.9 39.1 L 153.9 39.1 Q 155.2 40.2 157.6 40.2 L 157.6 40.2 L 157.6 40.2 Q 160.1 40.2 162.7 39.1 L 162.7 39.1 L 162.7 39.1 Q 165.3 38 166.3 36.2 Z M 153.3 29.2 L 153.3 29.2 L 153.3 29.2 Q 157.8 29.2 160.5 26.4 L 160.5 26.4 L 160.5 26.4 Q 163.1 23.7 163.1 19.4 L 163.1 19.4 L 163.1 19.4 Q 163.1 17.9 162.5 17.1 L 162.5 17.1 L 162.5 17.1 Q 162 16.3 160.9 16.3 L 160.9 16.3 L 160.9 16.3 Q 159.8 16.3 158.9 16.8 L 158.9 16.8 L 158.9 16.8 Q 158 17.2 157 18.6 L 157 18.6 L 157 18.6 Q 154.6 21.8 153.3 29.2 Z M 193.6 24.5 L 193.6 24.5 L 193.6 24.5 Q 194.5 22.2 194.5 20.1 L 194.5 20.1 L 194.5 20.1 Q 194.5 16.3 191.4 16.3 L 191.4 16.3 L 191.4 16.3 Q 189.8 16.3 188.5 17.8 L 188.5 17.8 L 188.5 17.8 Q 187.2 19.2 187.2 21 L 187.2 21 L 187.2 21 Q 187.2 22.3 188.2 23.3 L 188.2 23.3 L 188.2 23.3 Q 189.7 24.7 193.5 27 L 193.5 27 L 193.5 27 Q 197.3 29.3 198.7 31.2 L 198.7 31.2 L 198.7 31.2 Q 200.1 33.1 200.1 35.7 L 200.1 35.7 L 200.1 35.7 Q 200.1 38.3 198.9 40.7 L 198.9 40.7 L 198.9 40.7 Q 197.6 43 195.4 44.7 L 195.4 44.7 L 195.4 44.7 Q 190.6 48.3 182.9 48.3 L 182.9 48.3 L 182.9 48.3 Q 178.8 48.3 175.5 46.1 L 175.5 46.1 L 175.5 46.1 Q 172.4 44 172.4 41.5 L 172.4 41.5 L 172.4 41.5 Q 172.4 39 174.2 37.5 L 174.2 37.5 L 174.2 37.5 Q 176 36.1 178.7 36.1 L 178.7 36.1 L 178.7 36.1 Q 181.4 36.1 183 37.1 L 183 37.1 L 183 37.1 Q 182.2 39.2 182.2 40.6 L 182.2 40.6 L 182.2 40.6 Q 182.2 44.8 185.8 44.8 L 185.8 44.8 L 185.8 44.8 Q 187.3 44.8 188.4 43.9 L 188.4 43.9 L 188.4 43.9 Q 189.4 42.9 189.4 41.2 L 189.4 41.2 L 189.4 41.2 Q 189.4 38 183.9 34.5 L 183.9 34.5 L 183.9 34.5 Q 179.4 31.6 178.4 30.4 L 178.4 30.4 L 178.4 30.4 Q 176.6 28.4 176.6 25.8 L 176.6 25.8 L 176.6 25.8 Q 176.6 23.3 177.9 20.8 L 177.9 20.8 L 177.9 20.8 Q 179.1 18.4 181.3 16.7 L 181.3 16.7 L 181.3 16.7 Q 186 13.1 194.1 13.1 L 194.1 13.1 L 194.1 13.1 Q 198.3 13.1 200.7 14.7 L 200.7 14.7 L 200.7 14.7 Q 203.2 16.4 203.2 19.2 L 203.2 19.2 L 203.2 19.2 Q 203.2 22 201.5 23.6 L 201.5 23.6 L 201.5 23.6 Q 199.8 25.2 196.7 25.2 L 196.7 25.2 L 196.7 25.2 Q 194.6 25.2 193.6 24.5 Z M 244.7 26.4 L 257.6 25.2 L 257.6 25.2 Q 253 35.3 253 47.1 L 253 47.1 L 253 47.1 Q 251.3 48.3 248.7 48.3 L 248.7 48.3 L 248.7 48.3 Q 246.2 48.3 244.6 47.1 L 244.6 47.1 L 244.6 47.1 Q 243 45.9 242.7 44.7 L 242.7 44.7 L 242.7 44.7 Q 241.1 46.4 238.5 47.3 L 238.5 47.3 L 238.5 47.3 Q 235.9 48.3 233.1 48.3 L 233.1 48.3 L 233.1 48.3 Q 230.4 48.3 228 47.4 L 228 47.4 L 228 47.4 Q 225.6 46.5 223.7 44.5 L 223.7 44.5 L 223.7 44.5 Q 219.6 40.2 219.6 31.9 L 219.6 31.9 L 219.6 31.9 Q 219.6 19.1 226.5 11.4 L 226.5 11.4 L 226.5 11.4 Q 233.5 3.5 246 3.5 L 246 3.5 L 246 3.5 Q 254.7 3.5 257.7 8 L 257.7 8 L 257.7 8 Q 258.7 9.4 258.7 11.1 L 258.7 11.1 L 258.7 11.1 Q 258.7 12.8 258 14.2 L 258 14.2 L 258 14.2 Q 257.2 15.6 256.1 16.8 L 256.1 16.8 L 256.1 16.8 Q 253.3 19.4 249.9 19.4 L 249.9 19.4 L 249.9 19.4 Q 248.6 19.4 247.3 18.9 L 247.3 18.9 L 247.3 18.9 Q 247.6 17 247.6 14.7 L 247.6 14.7 L 247.6 14.7 Q 247.6 12.5 247.4 11.5 L 247.4 11.5 L 247.4 11.5 Q 247.2 10.5 246.8 9.6 L 246.8 9.6 L 246.8 9.6 Q 246 7.9 244.2 7.9 L 244.2 7.9 L 244.2 7.9 Q 242.4 7.9 240.3 9.9 L 240.3 9.9 L 240.3 9.9 Q 238.3 11.8 236.7 15 L 236.7 15 L 236.7 15 Q 233.2 22.2 233.2 30.8 L 233.2 30.8 L 233.2 30.8 Q 233.2 34.8 234.8 37.6 L 234.8 37.6 L 234.8 37.6 Q 236.4 40.7 239.4 40.7 L 239.4 40.7 L 239.4 40.7 Q 240.4 40.7 241.3 40.2 L 241.3 40.2 L 241.3 40.2 Q 242.2 39.6 242.6 39.3 L 242.6 39.3 L 244.7 26.4 Z M 263.5 45.1 L 263.5 45.1 L 263.5 45.1 Q 262 43.4 261.3 40.8 L 261.3 40.8 L 261.3 40.8 Q 260.7 38.2 260.7 33.9 L 260.7 33.9 L 260.7 33.9 Q 260.7 29.6 262.1 25.7 L 262.1 25.7 L 262.1 25.7 Q 263.6 21.8 266.3 19 L 266.3 19 L 266.3 19 Q 271.8 13.1 280.9 13.1 L 280.9 13.1 L 280.9 13.1 Q 284.2 13.1 286.5 14.2 L 286.5 14.2 L 297.5 13.1 L 292.7 38 L 292.7 38 Q 292.5 38.8 292.5 40.2 L 292.5 40.2 L 292.5 40.2 Q 292.5 41.6 293.4 42.5 L 293.4 42.5 L 293.4 42.5 Q 294.3 43.4 295.6 43.5 L 295.6 43.5 L 295.6 43.5 Q 294.9 45.7 292.6 47 L 292.6 47 L 292.6 47 Q 290.2 48.3 287.6 48.3 L 287.6 48.3 L 287.6 48.3 Q 285 48.3 283.2 47.3 L 283.2 47.3 L 283.2 47.3 Q 281.5 46.3 281 44.6 L 281 44.6 L 281 44.6 Q 279.9 46.2 277.8 47.3 L 277.8 47.3 L 277.8 47.3 Q 275.6 48.3 272.7 48.3 L 272.7 48.3 L 272.7 48.3 Q 269.8 48.3 267.4 47.5 L 267.4 47.5 L 267.4 47.5 Q 265 46.7 263.5 45.1 Z M 277 19.1 L 277 19.1 L 277 19.1 Q 276.3 20.2 275.6 22.2 L 275.6 22.2 L 275.6 22.2 Q 275 24.1 274 29.4 L 274 29.4 L 274 29.4 Q 272.9 34.6 272.9 38.3 L 272.9 38.3 L 272.9 38.3 Q 272.9 42 273.5 43.1 L 273.5 43.1 L 273.5 43.1 Q 274.1 44.2 275.1 44.2 L 275.1 44.2 L 275.1 44.2 Q 277.1 44.2 278.6 42.2 L 278.6 42.2 L 278.6 42.2 Q 280.1 40.3 280.7 36.8 L 280.7 36.8 L 284.1 18.1 L 284.1 18.1 Q 282.8 16.9 281.2 16.9 L 281.2 16.9 L 281.2 16.9 Q 279.6 16.9 278.7 17.4 L 278.7 17.4 L 278.7 17.4 Q 277.8 17.9 277 19.1 Z M 316.2 43.5 L 316.2 43.5 L 316.2 43.5 Q 314.2 48.3 307.9 48.3 L 307.9 48.3 L 307.9 48.3 Q 304.7 48.3 302.7 46 L 302.7 46 L 302.7 46 Q 301 44.2 301 42.1 L 301 42.1 L 301 42.1 Q 301 37.3 303.2 26.8 L 303.2 26.8 L 307.9 2.2 L 320.9 0.9 L 314.7 33.3 L 314.7 33.3 Q 313.6 38 313.6 39.7 L 313.6 39.7 L 313.6 39.7 Q 313.6 43.4 316.2 43.5 Z M 337 43.5 L 337 43.5 L 337 43.5 Q 335 48.3 328.6 48.3 L 328.6 48.3 L 328.6 48.3 Q 325.4 48.3 323.4 46 L 323.4 46 L 323.4 46 Q 321.7 44.2 321.7 42.1 L 321.7 42.1 L 321.7 42.1 Q 321.7 37.3 324 26.8 L 324 26.8 L 328.6 2.2 L 341.6 0.9 L 335.4 33.3 L 335.4 33.3 Q 334.3 38 334.3 39.7 L 334.3 39.7 L 334.3 39.7 Q 334.3 43.4 337 43.5 Z M 368.3 36.2 L 368.3 36.2 L 368.3 36.2 Q 369.9 37.3 369.9 39.7 L 369.9 39.7 L 369.9 39.7 Q 369.9 42.1 368.7 43.6 L 368.7 43.6 L 368.7 43.6 Q 367.5 45.1 365.5 46.2 L 365.5 46.2 L 365.5 46.2 Q 361.4 48.3 357 48.3 L 357 48.3 L 357 48.3 Q 352.6 48.3 350 47.3 L 350 47.3 L 350 47.3 Q 347.4 46.4 345.7 44.6 L 345.7 44.6 L 345.7 44.6 Q 342.3 41.2 342.3 35 L 342.3 35 L 342.3 35 Q 342.3 25.3 347.5 19.4 L 347.5 19.4 L 347.5 19.4 Q 353.1 13.1 362.9 13.1 L 362.9 13.1 L 362.9 13.1 Q 369 13.1 372 15.6 L 372 15.6 L 372 15.6 Q 374.3 17.6 374.3 20.7 L 374.3 20.7 L 374.3 20.7 Q 374.3 32 354.8 32 L 354.8 32 L 354.8 32 Q 354.6 33.6 354.6 35 L 354.6 35 L 354.6 35 Q 354.6 38 355.9 39.1 L 355.9 39.1 L 355.9 39.1 Q 357.2 40.2 359.6 40.2 L 359.6 40.2 L 359.6 40.2 Q 362.1 40.2 364.6 39.1 L 364.6 39.1 L 364.6 39.1 Q 367.2 38 368.3 36.2 Z M 355.3 29.2 L 355.3 29.2 L 355.3 29.2 Q 359.8 29.2 362.4 26.4 L 362.4 26.4 L 362.4 26.4 Q 365.1 23.7 365.1 19.4 L 365.1 19.4 L 365.1 19.4 Q 365.1 17.9 364.5 17.1 L 364.5 17.1 L 364.5 17.1 Q 364 16.3 362.9 16.3 L 362.9 16.3 L 362.9 16.3 Q 361.8 16.3 360.9 16.8 L 360.9 16.8 L 360.9 16.8 Q 359.9 17.2 359 18.6 L 359 18.6 L 359 18.6 Q 356.6 21.8 355.3 29.2 Z M 396.5 29 L 396.5 29 L 396.5 29 Q 398.8 24.9 398.8 20.8 L 398.8 20.8 L 398.8 20.8 Q 398.8 18 396.8 18 L 396.8 18 L 396.8 18 Q 395.3 18 393.7 20.6 L 393.7 20.6 L 393.7 20.6 Q 392 23.3 391.5 26.6 L 391.5 26.6 L 388.2 47 L 374.9 48.3 L 381.4 14.4 L 392 13.1 L 390.8 19.5 L 390.8 19.5 Q 394 13.1 401 13.1 L 401 13.1 L 401 13.1 Q 404.7 13.1 406.8 15 L 406.8 15 L 406.8 15 Q 408.8 16.9 408.8 20.9 L 408.8 20.9 L 408.8 20.9 Q 408.8 24.8 406.2 27.3 L 406.2 27.3 L 406.2 27.3 Q 403.6 29.8 399.2 29.8 L 399.2 29.8 L 399.2 29.8 Q 397.3 29.8 396.5 29 Z M 430.1 39.8 L 430.1 39.8 L 430.1 39.8 Q 426.8 43.2 420.7 43.2 L 420.7 43.2 L 420.7 43.2 Q 413.1 43.2 411.5 37.7 L 411.5 37.7 L 411.5 37.7 Q 411 36 411 34.1 L 411 34.1 L 411 34.1 Q 411 32.3 411.4 30.4 L 411.4 30.4 L 414.4 14.4 L 427.4 13.1 L 423.9 31.7 L 423.9 31.7 Q 423.7 32.5 423.6 33.4 L 423.6 33.4 L 423.6 33.4 Q 423.4 34.3 423.4 35.3 L 423.4 35.3 L 423.4 35.3 Q 423.4 36.2 423.7 36.8 L 423.7 36.8 L 423.7 36.8 Q 424 37.4 424.5 37.8 L 424.5 37.8 L 424.5 37.8 Q 425.2 38.3 426.6 38.3 L 426.6 38.3 L 426.6 38.3 Q 428 38.3 429.1 36.6 L 429.1 36.6 L 429.1 36.6 Q 430.3 35 430.9 32.1 L 430.9 32.1 L 434.4 14.4 L 447 13.1 L 442.2 38.2 L 442.2 38.2 Q 439.9 50.5 435 55.4 L 435 55.4 L 435 55.4 Q 432.5 57.9 429.3 58.9 L 429.3 58.9 L 429.3 58.9 Q 426.1 59.9 421.9 59.9 L 421.9 59.9 L 421.9 59.9 Q 415.2 59.9 411.3 57.8 L 411.3 57.8 L 411.3 57.8 Q 407.5 55.6 407.5 52.1 L 407.5 52.1 L 407.5 52.1 Q 407.5 49.5 409.5 48 L 409.5 48 L 409.5 48 Q 411.5 46.5 414.5 46.5 L 414.5 46.5 L 414.5 46.5 Q 417.2 46.5 419.3 47.6 L 419.3 47.6 L 419.3 47.6 Q 420.5 48.3 421.1 49.2 L 421.1 49.2 L 421.1 49.2 Q 419.6 50.5 419.6 52.6 L 419.6 52.6 L 419.6 52.6 Q 419.6 55.4 422.1 55.4 L 422.1 55.4 L 422.1 55.4 Q 426.4 55.4 428.8 45.7 L 428.8 45.7 L 428.8 45.7 Q 429.5 42.8 430.1 39.8 Z" fill="url(#editing-shiny-gradient)"></path></g></g><g filter="url(#editing-shiny2)"><g transform="matrix(1.4,0,0,2,-75.9,276.8)"><path d="M 14.2 -81.5 L 0.3 -81.5 L 8.4 -123.7 L 22.5 -123.7 L 14.2 -81.5 Z M 70 -80.2 L 70 -80.2 L 70 -80.2 Q 62.2 -80.2 62.2 -86.2 L 62.2 -86.2 L 62.2 -86.2 Q 62.2 -88.9 63.4 -93.9 L 63.4 -93.9 L 63.4 -93.9 Q 64.5 -99 64.9 -101.1 L 64.9 -101.1 L 64.9 -101.1 Q 65.8 -105.8 65.8 -107.2 L 65.8 -107.2 L 65.8 -107.2 Q 65.8 -110.5 63.3 -110.5 L 63.3 -110.5 L 63.3 -110.5 Q 61.7 -110.5 60.2 -108.3 L 60.2 -108.3 L 60.2 -108.3 Q 58.7 -106.1 57.9 -101.7 L 57.9 -101.7 L 54 -81.5 L 41.5 -80.2 L 45 -97.6 L 45 -97.6 Q 45.5 -100.5 46 -103.8 L 46 -103.8 L 46 -103.8 Q 46.6 -107 46.6 -107.6 L 46.6 -107.6 L 46.6 -107.6 Q 46.6 -110.5 44.4 -110.5 L 44.4 -110.5 L 44.4 -110.5 Q 42.9 -110.5 41.3 -108.3 L 41.3 -108.3 L 41.3 -108.3 Q 39.7 -106.1 38.8 -101.7 L 38.8 -101.7 L 34.9 -81.5 L 22.3 -80.2 L 29 -114.1 L 39.4 -115.4 L 38.4 -109 L 38.4 -109 Q 40 -112.4 43.1 -113.9 L 43.1 -113.9 L 43.1 -113.9 Q 46.2 -115.4 51 -115.4 L 51 -115.4 L 51 -115.4 Q 53.7 -115.4 55.5 -114.1 L 55.5 -114.1 L 55.5 -114.1 Q 57.3 -112.7 57.9 -110.6 L 57.9 -110.6 L 57.9 -110.6 Q 59 -112.8 61.8 -114.1 L 61.8 -114.1 L 61.8 -114.1 Q 64.5 -115.4 68 -115.4 L 68 -115.4 L 68 -115.4 Q 71.4 -115.4 73.1 -114.7 L 73.1 -114.7 L 73.1 -114.7 Q 74.8 -114 75.8 -112.7 L 75.8 -112.7 L 75.8 -112.7 Q 77.5 -110.5 77.5 -106.4 L 77.5 -106.4 L 77.5 -106.4 Q 77.5 -102.4 75.8 -94 L 75.8 -94 L 75.8 -94 Q 74.9 -89.9 74.9 -88.4 L 74.9 -88.4 L 74.9 -88.4 Q 74.9 -86.9 75.8 -86 L 75.8 -86 L 75.8 -86 Q 76.6 -85.1 77.9 -85 L 77.9 -85 L 77.9 -85 Q 77.3 -82.8 75.1 -81.5 L 75.1 -81.5 L 75.1 -81.5 Q 72.9 -80.2 70 -80.2 Z M 85.6 -83.4 L 85.6 -83.4 L 85.6 -83.4 Q 84.1 -85.1 83.4 -87.7 L 83.4 -87.7 L 83.4 -87.7 Q 82.8 -90.3 82.8 -94.6 L 82.8 -94.6 L 82.8 -94.6 Q 82.8 -98.9 84.2 -102.8 L 84.2 -102.8 L 84.2 -102.8 Q 85.7 -106.7 88.4 -109.5 L 88.4 -109.5 L 88.4 -109.5 Q 93.9 -115.4 103 -115.4 L 103 -115.4 L 103 -115.4 Q 106.3 -115.4 108.6 -114.3 L 108.6 -114.3 L 119.6 -115.4 L 114.8 -90.5 L 114.8 -90.5 Q 114.7 -89.7 114.7 -88.3 L 114.7 -88.3 L 114.7 -88.3 Q 114.7 -86.9 115.5 -86 L 115.5 -86 L 115.5 -86 Q 116.4 -85.1 117.7 -85 L 117.7 -85 L 117.7 -85 Q 117 -82.8 114.7 -81.5 L 114.7 -81.5 L 114.7 -81.5 Q 112.4 -80.2 109.7 -80.2 L 109.7 -80.2 L 109.7 -80.2 Q 107.1 -80.2 105.3 -81.2 L 105.3 -81.2 L 105.3 -81.2 Q 103.6 -82.2 103.1 -83.9 L 103.1 -83.9 L 103.1 -83.9 Q 102 -82.3 99.9 -81.2 L 99.9 -81.2 L 99.9 -81.2 Q 97.7 -80.2 94.8 -80.2 L 94.8 -80.2 L 94.8 -80.2 Q 91.9 -80.2 89.5 -81 L 89.5 -81 L 89.5 -81 Q 87.1 -81.8 85.6 -83.4 Z M 99.1 -109.4 L 99.1 -109.4 L 99.1 -109.4 Q 98.4 -108.3 97.8 -106.3 L 97.8 -106.3 L 97.8 -106.3 Q 97.1 -104.4 96.1 -99.1 L 96.1 -99.1 L 96.1 -99.1 Q 95 -93.9 95 -90.2 L 95 -90.2 L 95 -90.2 Q 95 -86.5 95.6 -85.4 L 95.6 -85.4 L 95.6 -85.4 Q 96.2 -84.3 97.2 -84.3 L 97.2 -84.3 L 97.2 -84.3 Q 99.2 -84.3 100.7 -86.3 L 100.7 -86.3 L 100.7 -86.3 Q 102.2 -88.2 102.8 -91.7 L 102.8 -91.7 L 106.2 -110.4 L 106.2 -110.4 Q 104.9 -111.6 103.3 -111.6 L 103.3 -111.6 L 103.3 -111.6 Q 101.7 -111.6 100.8 -111.1 L 100.8 -111.1 L 100.8 -111.1 Q 99.9 -110.6 99.1 -109.4 Z M 127.3 -108.3 L 127.3 -108.3 L 127.3 -108.3 Q 129.5 -111.3 132.8 -113.4 L 132.8 -113.4 L 132.8 -113.4 Q 136.1 -115.4 140.1 -115.4 L 140.1 -115.4 L 140.1 -115.4 Q 144.2 -115.4 146.1 -114.1 L 146.1 -114.1 L 158.6 -115.4 L 154.3 -90.8 L 154.3 -90.8 Q 152 -78.3 147.3 -73.4 L 147.3 -73.4 L 147.3 -73.4 Q 142.7 -68.7 133.9 -68.7 L 133.9 -68.7 L 133.9 -68.7 Q 127.2 -68.7 123.4 -70.8 L 123.4 -70.8 L 123.4 -70.8 Q 119.5 -72.9 119.5 -76.4 L 119.5 -76.4 L 119.5 -76.4 Q 119.5 -79.1 121.5 -80.6 L 121.5 -80.6 L 121.5 -80.6 Q 123.5 -82.1 126.6 -82.1 L 126.6 -82.1 L 126.6 -82.1 Q 129.2 -82.1 131.3 -80.9 L 131.3 -80.9 L 131.3 -80.9 Q 132.5 -80.2 133.1 -79.3 L 133.1 -79.3 L 133.1 -79.3 Q 131.6 -78 131.6 -75.9 L 131.6 -75.9 L 131.6 -75.9 Q 131.6 -73.2 134.2 -73.2 L 134.2 -73.2 L 134.2 -73.2 Q 138.5 -73.2 140.9 -83.3 L 140.9 -83.3 L 140.9 -83.3 Q 141.6 -86 142.2 -88.8 L 142.2 -88.8 L 142.2 -88.8 Q 139.3 -85.3 132.8 -85.3 L 132.8 -85.3 L 132.8 -85.3 Q 128.2 -85.3 125.6 -87.5 L 125.6 -87.5 L 125.6 -87.5 Q 123 -89.6 123 -94.8 L 123 -94.8 L 123 -94.8 Q 123 -97.9 124.1 -101.6 L 124.1 -101.6 L 124.1 -101.6 Q 125.2 -105.2 127.3 -108.3 Z M 135.6 -94.6 L 135.6 -94.6 L 135.6 -94.6 Q 135.6 -90.2 137.9 -90.2 L 137.9 -90.2 L 137.9 -90.2 Q 139.4 -90.2 140.9 -91.9 L 140.9 -91.9 L 140.9 -91.9 Q 142 -93.2 142.5 -95.2 L 142.5 -95.2 L 145.8 -111.6 L 145.8 -111.6 Q 145.4 -111.7 145.1 -111.8 L 145.1 -111.8 L 145.1 -111.8 Q 144.5 -112.1 143.6 -112.1 L 143.6 -112.1 L 143.6 -112.1 Q 139.7 -112.1 137.4 -105.7 L 137.4 -105.7 L 137.4 -105.7 Q 135.6 -100.7 135.6 -94.6 Z M 187 -92.3 L 187 -92.3 L 187 -92.3 Q 188.6 -91.2 188.6 -88.8 L 188.6 -88.8 L 188.6 -88.8 Q 188.6 -86.4 187.4 -84.9 L 187.4 -84.9 L 187.4 -84.9 Q 186.2 -83.4 184.2 -82.3 L 184.2 -82.3 L 184.2 -82.3 Q 180.1 -80.2 175.7 -80.2 L 175.7 -80.2 L 175.7 -80.2 Q 171.3 -80.2 168.7 -81.2 L 168.7 -81.2 L 168.7 -81.2 Q 166.1 -82.1 164.4 -83.9 L 164.4 -83.9 L 164.4 -83.9 Q 161 -87.3 161 -93.5 L 161 -93.5 L 161 -93.5 Q 161 -103.2 166.2 -109.1 L 166.2 -109.1 L 166.2 -109.1 Q 171.9 -115.4 181.7 -115.4 L 181.7 -115.4 L 181.7 -115.4 Q 187.7 -115.4 190.7 -112.9 L 190.7 -112.9 L 190.7 -112.9 Q 193 -110.9 193 -107.8 L 193 -107.8 L 193 -107.8 Q 193 -96.5 173.5 -96.5 L 173.5 -96.5 L 173.5 -96.5 Q 173.3 -94.9 173.3 -93.5 L 173.3 -93.5 L 173.3 -93.5 Q 173.3 -90.5 174.6 -89.4 L 174.6 -89.4 L 174.6 -89.4 Q 175.9 -88.3 178.3 -88.3 L 178.3 -88.3 L 178.3 -88.3 Q 180.8 -88.3 183.4 -89.4 L 183.4 -89.4 L 183.4 -89.4 Q 186 -90.5 187 -92.3 Z M 174 -99.3 L 174 -99.3 L 174 -99.3 Q 178.5 -99.3 181.2 -102.1 L 181.2 -102.1 L 181.2 -102.1 Q 183.8 -104.8 183.8 -109.1 L 183.8 -109.1 L 183.8 -109.1 Q 183.8 -110.6 183.2 -111.4 L 183.2 -111.4 L 183.2 -111.4 Q 182.7 -112.2 181.6 -112.2 L 181.6 -112.2 L 181.6 -112.2 Q 180.5 -112.2 179.6 -111.7 L 179.6 -111.7 L 179.6 -111.7 Q 178.7 -111.3 177.7 -109.9 L 177.7 -109.9 L 177.7 -109.9 Q 175.3 -106.7 174 -99.3 Z M 214.3 -104 L 214.3 -104 L 214.3 -104 Q 215.2 -106.3 215.2 -108.4 L 215.2 -108.4 L 215.2 -108.4 Q 215.2 -112.2 212.1 -112.2 L 212.1 -112.2 L 212.1 -112.2 Q 210.5 -112.2 209.2 -110.7 L 209.2 -110.7 L 209.2 -110.7 Q 207.9 -109.3 207.9 -107.5 L 207.9 -107.5 L 207.9 -107.5 Q 207.9 -106.2 208.9 -105.2 L 208.9 -105.2 L 208.9 -105.2 Q 210.4 -103.8 214.2 -101.5 L 214.2 -101.5 L 214.2 -101.5 Q 218 -99.2 219.4 -97.3 L 219.4 -97.3 L 219.4 -97.3 Q 220.8 -95.4 220.8 -92.8 L 220.8 -92.8 L 220.8 -92.8 Q 220.8 -90.2 219.6 -87.8 L 219.6 -87.8 L 219.6 -87.8 Q 218.3 -85.5 216.1 -83.8 L 216.1 -83.8 L 216.1 -83.8 Q 211.3 -80.2 203.6 -80.2 L 203.6 -80.2 L 203.6 -80.2 Q 199.5 -80.2 196.2 -82.4 L 196.2 -82.4 L 196.2 -82.4 Q 193.1 -84.5 193.1 -87 L 193.1 -87 L 193.1 -87 Q 193.1 -89.5 194.9 -91 L 194.9 -91 L 194.9 -91 Q 196.7 -92.4 199.4 -92.4 L 199.4 -92.4 L 199.4 -92.4 Q 202.1 -92.4 203.7 -91.4 L 203.7 -91.4 L 203.7 -91.4 Q 202.9 -89.3 202.9 -87.9 L 202.9 -87.9 L 202.9 -87.9 Q 202.9 -83.7 206.5 -83.7 L 206.5 -83.7 L 206.5 -83.7 Q 208 -83.7 209.1 -84.6 L 209.1 -84.6 L 209.1 -84.6 Q 210.1 -85.6 210.1 -87.3 L 210.1 -87.3 L 210.1 -87.3 Q 210.1 -90.5 204.6 -94 L 204.6 -94 L 204.6 -94 Q 200.1 -96.9 199.1 -98.1 L 199.1 -98.1 L 199.1 -98.1 Q 197.3 -100.1 197.3 -102.7 L 197.3 -102.7 L 197.3 -102.7 Q 197.3 -105.2 198.6 -107.7 L 198.6 -107.7 L 198.6 -107.7 Q 199.8 -110.1 202 -111.8 L 202 -111.8 L 202 -111.8 Q 206.7 -115.4 214.8 -115.4 L 214.8 -115.4 L 214.8 -115.4 Q 219 -115.4 221.4 -113.8 L 221.4 -113.8 L 221.4 -113.8 Q 223.9 -112.1 223.9 -109.3 L 223.9 -109.3 L 223.9 -109.3 Q 223.9 -106.5 222.2 -104.9 L 222.2 -104.9 L 222.2 -104.9 Q 220.5 -103.3 217.4 -103.3 L 217.4 -103.3 L 217.4 -103.3 Q 215.3 -103.3 214.3 -104 Z M 265.4 -102.1 L 278.3 -103.3 L 278.3 -103.3 Q 273.7 -93.2 273.7 -81.4 L 273.7 -81.4 L 273.7 -81.4 Q 272 -80.2 269.4 -80.2 L 269.4 -80.2 L 269.4 -80.2 Q 266.9 -80.2 265.3 -81.4 L 265.3 -81.4 L 265.3 -81.4 Q 263.7 -82.6 263.4 -83.8 L 263.4 -83.8 L 263.4 -83.8 Q 261.8 -82.1 259.2 -81.2 L 259.2 -81.2 L 259.2 -81.2 Q 256.6 -80.2 253.8 -80.2 L 253.8 -80.2 L 253.8 -80.2 Q 251.1 -80.2 248.7 -81.1 L 248.7 -81.1 L 248.7 -81.1 Q 246.3 -82 244.4 -84 L 244.4 -84 L 244.4 -84 Q 240.3 -88.3 240.3 -96.6 L 240.3 -96.6 L 240.3 -96.6 Q 240.3 -109.4 247.2 -117.1 L 247.2 -117.1 L 247.2 -117.1 Q 254.2 -125 266.7 -125 L 266.7 -125 L 266.7 -125 Q 275.4 -125 278.4 -120.5 L 278.4 -120.5 L 278.4 -120.5 Q 279.4 -119.1 279.4 -117.4 L 279.4 -117.4 L 279.4 -117.4 Q 279.4 -115.7 278.7 -114.3 L 278.7 -114.3 L 278.7 -114.3 Q 277.9 -112.9 276.8 -111.7 L 276.8 -111.7 L 276.8 -111.7 Q 274 -109.1 270.6 -109.1 L 270.6 -109.1 L 270.6 -109.1 Q 269.3 -109.1 268 -109.6 L 268 -109.6 L 268 -109.6 Q 268.3 -111.5 268.3 -113.8 L 268.3 -113.8 L 268.3 -113.8 Q 268.3 -116 268.1 -117 L 268.1 -117 L 268.1 -117 Q 267.9 -118 267.5 -118.9 L 267.5 -118.9 L 267.5 -118.9 Q 266.7 -120.6 264.9 -120.6 L 264.9 -120.6 L 264.9 -120.6 Q 263.1 -120.6 261 -118.6 L 261 -118.6 L 261 -118.6 Q 259 -116.7 257.4 -113.5 L 257.4 -113.5 L 257.4 -113.5 Q 253.9 -106.3 253.9 -97.7 L 253.9 -97.7 L 253.9 -97.7 Q 253.9 -93.7 255.5 -90.9 L 255.5 -90.9 L 255.5 -90.9 Q 257.1 -87.8 260.1 -87.8 L 260.1 -87.8 L 260.1 -87.8 Q 261.1 -87.8 262 -88.3 L 262 -88.3 L 262 -88.3 Q 262.9 -88.9 263.3 -89.2 L 263.3 -89.2 L 265.4 -102.1 Z M 284.2 -83.4 L 284.2 -83.4 L 284.2 -83.4 Q 282.7 -85.1 282 -87.7 L 282 -87.7 L 282 -87.7 Q 281.4 -90.3 281.4 -94.6 L 281.4 -94.6 L 281.4 -94.6 Q 281.4 -98.9 282.8 -102.8 L 282.8 -102.8 L 282.8 -102.8 Q 284.3 -106.7 287 -109.5 L 287 -109.5 L 287 -109.5 Q 292.5 -115.4 301.6 -115.4 L 301.6 -115.4 L 301.6 -115.4 Q 304.9 -115.4 307.2 -114.3 L 307.2 -114.3 L 318.2 -115.4 L 313.4 -90.5 L 313.4 -90.5 Q 313.2 -89.7 313.2 -88.3 L 313.2 -88.3 L 313.2 -88.3 Q 313.2 -86.9 314.1 -86 L 314.1 -86 L 314.1 -86 Q 315 -85.1 316.3 -85 L 316.3 -85 L 316.3 -85 Q 315.6 -82.8 313.3 -81.5 L 313.3 -81.5 L 313.3 -81.5 Q 310.9 -80.2 308.3 -80.2 L 308.3 -80.2 L 308.3 -80.2 Q 305.7 -80.2 303.9 -81.2 L 303.9 -81.2 L 303.9 -81.2 Q 302.2 -82.2 301.7 -83.9 L 301.7 -83.9 L 301.7 -83.9 Q 300.6 -82.3 298.5 -81.2 L 298.5 -81.2 L 298.5 -81.2 Q 296.3 -80.2 293.4 -80.2 L 293.4 -80.2 L 293.4 -80.2 Q 290.5 -80.2 288.1 -81 L 288.1 -81 L 288.1 -81 Q 285.7 -81.8 284.2 -83.4 Z M 297.7 -109.4 L 297.7 -109.4 L 297.7 -109.4 Q 297 -108.3 296.3 -106.3 L 296.3 -106.3 L 296.3 -106.3 Q 295.7 -104.4 294.7 -99.1 L 294.7 -99.1 L 294.7 -99.1 Q 293.6 -93.9 293.6 -90.2 L 293.6 -90.2 L 293.6 -90.2 Q 293.6 -86.5 294.2 -85.4 L 294.2 -85.4 L 294.2 -85.4 Q 294.8 -84.3 295.8 -84.3 L 295.8 -84.3 L 295.8 -84.3 Q 297.8 -84.3 299.3 -86.3 L 299.3 -86.3 L 299.3 -86.3 Q 300.8 -88.2 301.4 -91.7 L 301.4 -91.7 L 304.8 -110.4 L 304.8 -110.4 Q 303.5 -111.6 301.9 -111.6 L 301.9 -111.6 L 301.9 -111.6 Q 300.3 -111.6 299.4 -111.1 L 299.4 -111.1 L 299.4 -111.1 Q 298.5 -110.6 297.7 -109.4 Z M 336.9 -85 L 336.9 -85 L 336.9 -85 Q 334.9 -80.2 328.6 -80.2 L 328.6 -80.2 L 328.6 -80.2 Q 325.4 -80.2 323.4 -82.5 L 323.4 -82.5 L 323.4 -82.5 Q 321.7 -84.3 321.7 -86.4 L 321.7 -86.4 L 321.7 -86.4 Q 321.7 -91.2 323.9 -101.7 L 323.9 -101.7 L 328.6 -126.3 L 341.6 -127.6 L 335.4 -95.2 L 335.4 -95.2 Q 334.3 -90.5 334.3 -88.8 L 334.3 -88.8 L 334.3 -88.8 Q 334.3 -85.1 336.9 -85 Z M 357.7 -85 L 357.7 -85 L 357.7 -85 Q 355.7 -80.2 349.3 -80.2 L 349.3 -80.2 L 349.3 -80.2 Q 346.1 -80.2 344.1 -82.5 L 344.1 -82.5 L 344.1 -82.5 Q 342.4 -84.3 342.4 -86.4 L 342.4 -86.4 L 342.4 -86.4 Q 342.4 -91.2 344.7 -101.7 L 344.7 -101.7 L 349.3 -126.3 L 362.3 -127.6 L 356.1 -95.2 L 356.1 -95.2 Q 355 -90.5 355 -88.8 L 355 -88.8 L 355 -88.8 Q 355 -85.1 357.7 -85 Z M 389 -92.3 L 389 -92.3 L 389 -92.3 Q 390.6 -91.2 390.6 -88.8 L 390.6 -88.8 L 390.6 -88.8 Q 390.6 -86.4 389.4 -84.9 L 389.4 -84.9 L 389.4 -84.9 Q 388.2 -83.4 386.2 -82.3 L 386.2 -82.3 L 386.2 -82.3 Q 382.1 -80.2 377.7 -80.2 L 377.7 -80.2 L 377.7 -80.2 Q 373.3 -80.2 370.7 -81.2 L 370.7 -81.2 L 370.7 -81.2 Q 368.1 -82.1 366.4 -83.9 L 366.4 -83.9 L 366.4 -83.9 Q 363 -87.3 363 -93.5 L 363 -93.5 L 363 -93.5 Q 363 -103.2 368.2 -109.1 L 368.2 -109.1 L 368.2 -109.1 Q 373.8 -115.4 383.6 -115.4 L 383.6 -115.4 L 383.6 -115.4 Q 389.7 -115.4 392.7 -112.9 L 392.7 -112.9 L 392.7 -112.9 Q 395 -110.9 395 -107.8 L 395 -107.8 L 395 -107.8 Q 395 -96.5 375.5 -96.5 L 375.5 -96.5 L 375.5 -96.5 Q 375.3 -94.9 375.3 -93.5 L 375.3 -93.5 L 375.3 -93.5 Q 375.3 -90.5 376.6 -89.4 L 376.6 -89.4 L 376.6 -89.4 Q 377.9 -88.3 380.3 -88.3 L 380.3 -88.3 L 380.3 -88.3 Q 382.8 -88.3 385.3 -89.4 L 385.3 -89.4 L 385.3 -89.4 Q 387.9 -90.5 389 -92.3 Z M 376 -99.3 L 376 -99.3 L 376 -99.3 Q 380.5 -99.3 383.1 -102.1 L 383.1 -102.1 L 383.1 -102.1 Q 385.8 -104.8 385.8 -109.1 L 385.8 -109.1 L 385.8 -109.1 Q 385.8 -110.6 385.2 -111.4 L 385.2 -111.4 L 385.2 -111.4 Q 384.7 -112.2 383.6 -112.2 L 383.6 -112.2 L 383.6 -112.2 Q 382.5 -112.2 381.6 -111.7 L 381.6 -111.7 L 381.6 -111.7 Q 380.6 -111.3 379.7 -109.9 L 379.7 -109.9 L 379.7 -109.9 Q 377.3 -106.7 376 -99.3 Z M 417.2 -99.5 L 417.2 -99.5 L 417.2 -99.5 Q 419.5 -103.6 419.5 -107.7 L 419.5 -107.7 L 419.5 -107.7 Q 419.5 -110.5 417.5 -110.5 L 417.5 -110.5 L 417.5 -110.5 Q 416 -110.5 414.4 -107.9 L 414.4 -107.9 L 414.4 -107.9 Q 412.7 -105.2 412.2 -101.9 L 412.2 -101.9 L 408.9 -81.5 L 395.6 -80.2 L 402.1 -114.1 L 412.7 -115.4 L 411.5 -109 L 411.5 -109 Q 414.7 -115.4 421.7 -115.4 L 421.7 -115.4 L 421.7 -115.4 Q 425.4 -115.4 427.5 -113.5 L 427.5 -113.5 L 427.5 -113.5 Q 429.5 -111.6 429.5 -107.6 L 429.5 -107.6 L 429.5 -107.6 Q 429.5 -103.7 426.9 -101.2 L 426.9 -101.2 L 426.9 -101.2 Q 424.3 -98.7 419.9 -98.7 L 419.9 -98.7 L 419.9 -98.7 Q 418 -98.7 417.2 -99.5 Z M 450.8 -88.7 L 450.8 -88.7 L 450.8 -88.7 Q 447.5 -85.3 441.4 -85.3 L 441.4 -85.3 L 441.4 -85.3 Q 433.8 -85.3 432.2 -90.8 L 432.2 -90.8 L 432.2 -90.8 Q 431.7 -92.5 431.7 -94.4 L 431.7 -94.4 L 431.7 -94.4 Q 431.7 -96.2 432.1 -98.1 L 432.1 -98.1 L 435.1 -114.1 L 448.1 -115.4 L 444.6 -96.8 L 444.6 -96.8 Q 444.4 -96 444.3 -95.1 L 444.3 -95.1 L 444.3 -95.1 Q 444.1 -94.2 444.1 -93.2 L 444.1 -93.2 L 444.1 -93.2 Q 444.1 -92.3 444.4 -91.7 L 444.4 -91.7 L 444.4 -91.7 Q 444.7 -91.1 445.2 -90.7 L 445.2 -90.7 L 445.2 -90.7 Q 445.9 -90.2 447.3 -90.2 L 447.3 -90.2 L 447.3 -90.2 Q 448.7 -90.2 449.8 -91.9 L 449.8 -91.9 L 449.8 -91.9 Q 451 -93.5 451.6 -96.4 L 451.6 -96.4 L 455.1 -114.1 L 467.7 -115.4 L 462.9 -90.3 L 462.9 -90.3 Q 460.6 -78 455.7 -73.1 L 455.7 -73.1 L 455.7 -73.1 Q 453.2 -70.6 450 -69.6 L 450 -69.6 L 450 -69.6 Q 446.8 -68.6 442.6 -68.6 L 442.6 -68.6 L 442.6 -68.6 Q 435.9 -68.6 432 -70.7 L 432 -70.7 L 432 -70.7 Q 428.2 -72.9 428.2 -76.4 L 428.2 -76.4 L 428.2 -76.4 Q 428.2 -79 430.2 -80.5 L 430.2 -80.5 L 430.2 -80.5 Q 432.2 -82 435.2 -82 L 435.2 -82 L 435.2 -82 Q 437.9 -82 440 -80.9 L 440 -80.9 L 440 -80.9 Q 441.2 -80.2 441.8 -79.3 L 441.8 -79.3 L 441.8 -79.3 Q 440.3 -78 440.3 -75.9 L 440.3 -75.9 L 440.3 -75.9 Q 440.3 -73.1 442.8 -73.1 L 442.8 -73.1 L 442.8 -73.1 Q 447.1 -73.1 449.5 -82.8 L 449.5 -82.8 L 449.5 -82.8 Q 450.2 -85.7 450.8 -88.7 Z" fill="url(#editing-shiny-gradient2)"></path></g></g><style>text {
  font-size: 64px;
  font-family: Arial Black;
  dominant-baseline: central;
  text-anchor: middle;
}</style></svg>